<?xml version="1.0" encoding="utf-8"?>
<!-- Generator: Adobe Illustrator 23.0.3, SVG Export Plug-In . SVG Version: 6.00 Build 0)  -->
<svg version="1.1" id="Layer_1" xmlns="http://www.w3.org/2000/svg" xmlns:xlink="http://www.w3.org/1999/xlink" x="0px" y="0px"
	 viewBox="0 0 505 117" style="enable-background:new 0 0 505 117;" xml:space="preserve">
<style type="text/css">
	.st0{clip-path:url(#SVGID_2_);}
	.st1{fill:#2563EB;}
	.st2{fill:#407BFC;}
	.st3{fill:#80A7FF;}
	.st4{fill:#212E4C;}
</style>
<g>
	<g>
		<defs>
			<rect id="SVGID_1_" x="0.3" y="1.8" width="113.5" height="113.5"/>
		</defs>
		<clipPath id="SVGID_2_">
			<use xlink:href="#SVGID_1_"  style="overflow:visible;"/>
		</clipPath>
		<g class="st0">
			<path class="st1" d="M44.5,55.6L3.6,76.8c-4.4,2.3-4.4,8.7,0.1,10.9l41.1,20.7c7.7,3.9,16.8,3.9,24.5,0l41.1-20.7
				c4.5-2.2,4.5-8.6,0.1-10.9L69.6,55.6C61.7,51.5,52.3,51.5,44.5,55.6L44.5,55.6z"/>
			<path class="st2" d="M44.5,32L3.6,53.3c-4.4,2.3-4.4,8.7,0.1,10.9l41.1,20.7c7.7,3.9,16.8,3.9,24.5,0l41.1-20.7
				c4.5-2.2,4.5-8.6,0.1-10.9L69.6,32C61.7,28,52.3,28,44.5,32L44.5,32z"/>
			<path class="st2" d="M69.3,84.8l28.9-14.5L69.6,55.6c-7.9-4.1-17.2-4.1-25.1,0L15.9,70.3l28.9,14.5
				C52.5,88.8,61.6,88.8,69.3,84.8L69.3,84.8z"/>
			<path class="st3" d="M44.5,8.6L3.6,29.8c-4.4,2.3-4.4,8.7,0.1,10.9l41.1,20.7c7.7,3.9,16.8,3.9,24.5,0l41.1-20.7
				c4.5-2.2,4.5-8.6,0.1-10.9L69.6,8.6C61.7,4.5,52.3,4.5,44.5,8.6L44.5,8.6z"/>
			<path class="st3" d="M69.3,61.4l28.9-14.5L69.6,32C61.7,28,52.4,28,44.5,32L15.9,46.9l28.9,14.5C52.5,65.3,61.6,65.3,69.3,61.4z"
				/>
			<path class="st3" d="M69.3,61.4l5.8-2.9l-5.5-2.9c-7.9-4.1-17.2-4.1-25.1,0L39,58.5l5.8,2.9C52.5,65.3,61.6,65.3,69.3,61.4z"/>
		</g>
	</g>
</g>
<path class="st4" d="M140.6,77.6V32.3h12.6l18.1,29.6h-6.6l17.6-29.6h12.6l0.1,45.3H181l-0.1-24.3h2.2l-12,20.3h-6.7l-12.6-20.3h2.7
	v24.3H140.6z"/>
<path class="st4" d="M214,77.6V57.8l3.5,9.1l-20.6-34.5H213l13.9,23.6h-9.4l14-23.6h14.8l-20.4,34.5l3.4-9.1v19.9H214z"/>
<path class="st4" d="M296.4,32.3v24.5c0,3.5-0.6,5.9-1.8,7.3c-1.2,1.4-2.9,2.2-5.1,2.2c-2.1,0-3.8-0.7-5-2.2
	c-1.3-1.4-1.9-3.9-1.9-7.3V32.3h-15.3v24.9c0,6.8,1.9,12,5.8,15.8c3.9,3.8,9.3,5.6,16.2,5.6c7,0,12.4-1.9,16.2-5.6
	c0.8-0.8,1.6-1.6,2.2-2.6c-1.1-1.5-2-3.1-2.8-4.9c-1.4-3.2-2.2-6.8-2.2-10.6c0-3.8,0.7-7.4,2.2-10.6c1.4-3.2,3.4-6,6-8.4
	c0.2-0.1,0.3-0.3,0.4-0.4v-3.2H296.4z"/>
<path class="st4" d="M331.2,78.7c-3.7,0-7.1-0.6-10.2-1.7c-3.1-1.2-5.8-2.8-8.1-4.9s-4.1-4.6-5.3-7.5c-1.3-2.9-1.9-6-1.9-9.4
	c0-3.5,0.6-6.6,1.9-9.5c1.3-2.9,3.1-5.4,5.3-7.5s5-3.8,8.1-4.9c3.1-1.2,6.5-1.7,10.2-1.7c3.7,0,7.1,0.6,10.2,1.7
	c3.1,1.2,5.8,2.8,8.1,4.9c2.3,2.1,4.1,4.6,5.3,7.5c1.3,2.9,1.9,6,1.9,9.5c0,3.4-0.6,6.6-1.9,9.4c-1.3,2.9-3.1,5.4-5.3,7.5
	c-2.3,2.1-5,3.8-8.1,4.9C338.3,78.1,334.9,78.7,331.2,78.7z M331.2,66.3c1.4,0,2.7-0.3,4-0.8s2.3-1.3,3.2-2.2c0.9-1,1.6-2.2,2.2-3.6
	c0.5-1.4,0.8-3,0.8-4.8c0-1.8-0.3-3.4-0.8-4.8s-1.2-2.6-2.2-3.6c-0.9-1-2-1.7-3.2-2.2s-2.6-0.8-4-0.8c-1.4,0-2.8,0.3-4,0.8
	s-2.3,1.3-3.2,2.2c-0.9,1-1.7,2.2-2.2,3.6s-0.8,3-0.8,4.8c0,1.8,0.3,3.4,0.8,4.8c0.5,1.4,1.2,2.6,2.2,3.6c0.9,1,2,1.7,3.2,2.2
	S329.8,66.3,331.2,66.3z"/>
<path class="st4" d="M399.2,77.6h-17.7l-11.4-15l-3.4,3.8v11.2h-15v-4c2.4-2.3,4.3-5,5.6-8.1c1.4-3.2,2.2-6.8,2.2-10.6
	c0-3.8-0.7-7.4-2.2-10.6c-1.4-3-3.2-5.8-5.6-8v-4h15v16.4l14.9-16.4h16.6l-18.1,20L399.2,77.6z"/>
</svg>
