<?xml version="1.0" encoding="utf-8"?>
<!-- Generator: Adobe Illustrator 23.0.3, SVG Export Plug-In . SVG Version: 6.00 Build 0)  -->
<svg version="1.1" id="Layer_1" xmlns="http://www.w3.org/2000/svg" xmlns:xlink="http://www.w3.org/1999/xlink" x="0px" y="0px"
	 viewBox="0 0 1440 584" style="enable-background:new 0 0 1440 584;" xml:space="preserve">
<style type="text/css">
	.st0{fill:#EFF3F9;}
	.st1{fill:#60A5FA;}
</style>
<path class="st0" d="M0.2,483.1V-0.2h1440v483.3c-171.4,61.2-430.3,100.2-720,100.2C430.5,583.4,171.6,544.4,0.2,483.1z"/>
<circle class="st1" cx="1476.6" cy="285.7" r="162"/>
<g>
	<g>
		<path class="st1" d="M342.6,90.3c0,28.3-5.5,56.6-16.4,82.7c-10.8,26.1-26.8,50.1-46.8,70.1c-20,20-43.9,36.1-70.1,46.9
			c-26.1,10.9-54.4,16.5-82.7,16.5c-28.3,0-56.6-5.5-82.8-16.4c-26.2-10.8-50.2-26.9-70.2-46.9c-20-20-36.1-44-47-70.2
			c-10.9-26.2-16.5-54.5-16.5-82.8c0-28.3,5.6-56.7,16.5-82.8c10.9-26.2,26.9-50.1,47-70.2c20-20,44-36.1,70.2-46.9
			c26.2-10.8,54.5-16.4,82.8-16.4c28.3,0,56.6,5.6,82.7,16.5c26.1,10.8,50.1,26.9,70.1,46.9c20,20,36,44,46.8,70.1
			C337,33.8,342.6,62,342.6,90.3z M342.6,90.3c0-28.3-5.6-56.5-16.5-82.6c-10.8-26.1-26.9-50-46.9-70c-20-20-43.9-36-70.1-46.8
			c-26.1-10.8-54.3-16.4-82.6-16.3c-28.2,0-56.5,5.6-82.5,16.5c-26.1,10.8-50,26.8-69.9,46.8c-19.9,20-35.9,43.9-46.7,70
			c-10.8,26.1-16.3,54.3-16.3,82.5c0,28.2,5.5,56.4,16.3,82.5c10.8,26.1,26.8,50,46.7,70c19.9,20,43.8,36,69.9,46.8
			c26.1,10.9,54.3,16.4,82.5,16.5c28.2,0,56.5-5.5,82.6-16.3c26.1-10.8,50.1-26.8,70.1-46.8c20-20,36-43.9,46.9-70
			C337,146.9,342.5,118.6,342.6,90.3z"/>
	</g>
</g>
</svg>
